<svg xmlns="http://www.w3.org/2000/svg" xmlns:xlink="http://www.w3.org/1999/xlink" viewBox="0 0 1620.5 171.8">
              <path fill="#F9F9F9" d="M1620.5,51.1v120.7H0V39.1C2.1,39,4.3,39,6.5,38.8c7.7-0.8,15.3-1.9,23-2.6c8.8-0.7,17.6-1.3,26.4-1.5
              c8.3-0.2,16.7,0.2,25,0.6c6.1,0.3,12.3,0.7,18.3,1.5c10.2,1.3,20.3,2.8,30.4,4.5c15.6,2.7,31.2,5.7,46.7,8.5
              c11.5,2,23.1,4.2,34.7,5.8c11.8,1.7,23.6,3,35.4,4.1c9.1,0.9,18.2,1.3,27.3,1.6c5.5,0.2,11-0.1,16.5-0.5c9.3-0.6,18.5-1.9,27.6-3.6
              c17-3.2,33.6-7.7,50-12.9c13.3-4.2,26.6-8.8,39.9-13.1c16.8-5.5,33.5-11,50.4-16.3c17.5-5.4,35.3-9.7,53.4-12.3
              c8.3-1.2,16.6-2.1,25-2.4c1.5-0.1,3-0.2,4.5-0.4h12.5c0.3,0.1,0.6,0.2,0.9,0.2c6.2,0.3,12.4,0.4,18.5,0.9c8.6,0.8,17.2,1.6,25.8,2.8
              c8.4,1.2,16.7,2.8,25,4.4c15.7,3.1,31.1,7.1,46.4,11.5c15.6,4.4,31.1,9.1,46.6,13.7c19.9,5.8,39.8,11.3,60.3,14.6
              c8.4,1.4,16.9,2.3,25.4,2.6c2.6,0.1,5.1,0.2,7.7,0.4c32.4-4.3,32.4-8.9,54.5-12.5c8.2-1.3,38.9-2.5,44.8-1.8
              c10.2,1.3,20.3,2.8,30.4,4.5c15.6,2.7,31.2,5.7,46.7,8.5c11.6,2,23.1,4.2,34.7,5.8c11.8,1.7,23.6,3,35.4,4.1
              c9.1,0.9,18.2,1.3,27.3,1.6c5.5,0.2,11-0.1,16.5-0.5c9.3-0.6,18.5-1.9,27.6-3.6c17-3.2,33.6-7.7,50-12.9
              c13.3-4.2,26.6-8.8,39.9-13.1c16.8-5.5,33.5-11,50.4-16.3c17.5-5.4,35.3-9.7,53.4-12.3c8.3-1.2,16.6-2.1,25-2.4
              c1.5-0.1,3-0.2,4.5-0.4h12.5c0.3,0.1,0.6,0.2,0.9,0.2c6.2,0.3,12.4,0.4,18.5,0.9c8.6,0.8,17.2,1.6,25.8,2.8c8.4,1.2,16.7,2.8,25,4.4
              c15.7,3.1,31.1,7.1,46.4,11.5c15.6,4.4,31.1,9.1,46.6,13.7c19.9,5.8,39.8,11.3,60.3,14.6c8.4,1.4,16.9,2.3,25.4,2.6
              C1615.4,50.9,1617.9,51,1620.5,51.1z"></path>
            </svg>